<svg width="82" height="77" xmlns="http://www.w3.org/2000/svg">
 <g id="Layer_1">
  <title>Layer 1</title>
  <ellipse id="svg_1" fill="white" ry="33.195" rx="33.68" cy="38.065" cx="40.56"/>
  <path id="svg_2" fill="#00011D" d="m44.209,26.773c-0.223,-0.0859 -0.694,0.0759 -1.05,0.3612c-0.357,0.2855 -0.467,0.5874 -0.246,0.6749c0.223,0.0877 0.695,-0.0735 1.053,-0.3604c0.359,-0.2868 0.468,-0.5895 0.243,-0.6757z"/>
  <path id="svg_3" fill="#00011D" d="m43.619,18.7666c-1.696,-0.3702 -2.631,1.8498 -2.49,2.1417c0.31,0.6434 2.863,-0.3455 3.844,0.3336c0.981,0.6791 1.292,-1.8982 -1.354,-2.4753zm-1.02,1.6808c-0.046,0.1905 -0.378,0.2214 -0.528,0.1603c-0.33,-0.1346 -0.116,-0.434 0.141,-0.6299c0.079,-0.0603 0.423,-0.139 0.389,0.1077c-0.02,0.1444 0.011,0.3064 -0.002,0.3619zm2.375,0.0905c-0.062,0.1646 -0.22,0.1974 -0.378,0.1544c-0.07,-0.019 -0.143,-0.0503 -0.2,-0.0937c-0.125,-0.0945 -0.073,-0.2529 -0.061,-0.3859c0.003,-0.0258 0.043,-0.2987 0.019,-0.3071c0.159,0.0519 0.315,0.1097 0.469,0.1732c0.175,0.0724 0.212,0.299 0.151,0.4591z"/>
  <path id="svg_4" fill="#00011D" d="m40.557,4.8718c-18.601,0 -33.68,14.862 -33.68,33.1952c0,18.3334 15.079,33.1954 33.68,33.1954c18.601,0 33.68,-14.862 33.68,-33.1954c0,-18.3332 -15.079,-33.1952 -33.68,-33.1952zm24.197,14.344c5.88,9.1503 3.945,20.2878 1.006,26.0829c0.492,-16.5164 -8.379,-10.9299 -10.351,-18.4594c-1.583,-6.0465 1.415,-12.1688 -0.712,-14.4863c-0.7,-0.7626 7.236,2.4716 10.057,6.8628zm-11.361,16.6103c2.648,1.5658 4.13,0.4219 6.206,1.7003c1.581,0.9733 2.957,3.4004 3.203,3.8862c-2.262,-2.4289 -3.002,-3.4006 -7.684,-3.4006c-2.68,0 -4.064,-2.148 -4.189,-3.6432c-0.145,-1.7261 0.105,-3.6433 1.232,-6.0723c-1.105,4.5191 0,6.801 1.232,7.5296zm4.929,-0.2429c-2.013,-0.6102 -4.19,0 -5.175,-2.9146c-1.076,-3.1805 0.537,-8.9869 0.745,-9.3834c0.039,2.3396 -0.852,7.5311 5.953,10.3549c4.682,1.9431 4.682,8.744 4.682,8.744c-1.232,-2.9147 -3.002,-5.8293 -6.205,-6.8009zm-11.005,-19.0887c-0.437,-0.2867 -3.014,-0.7031 -2.244,-1.5978c0.771,-0.8949 3.445,-2.1627 4.009,-1.9503c0.563,0.2123 1.282,2.4935 1.894,2.7413c0.612,0.2479 1.842,0.197 2.038,0.2607c0.196,0.0638 1.29,1.9015 1.141,2.3739c-0.149,0.4724 -3.093,-0.8799 -3.729,-0.1308c0,0 -4.463,5.2142 -4.82,6.0723c-0.358,0.8582 1.053,4.1875 0.842,4.5409c-0.21,0.3534 -0.981,-0.0839 -1.571,0.4919c-0.027,0.0258 -0.995,-0.4486 -1.214,-0.3767c-0.502,0.1651 -0.819,0.6945 -1.182,1.0435c-0.413,0.3979 -0.864,0.7566 -1.347,1.0696c-0.216,0.1405 -1.538,0.7348 -0.742,0.977c0.344,0.1048 1.078,-0.3305 1.371,-0.4755c0.504,-0.2494 1.025,-0.6361 1.625,-0.5609c0.454,0.057 0.796,0.5158 1.3,0.5111c0.359,-0.0036 1.21,-0.3484 1.428,-0.1661c0.218,0.1823 0.719,0.565 0.399,1.0077c-0.319,0.4426 -1.685,1.3835 -4.109,0.3423c-0.03,-0.0127 -0.068,0.6282 -0.062,0.671c0.047,0.3704 0.197,0.5939 0.541,0.7415c0.626,0.2687 1.348,0.1844 2.01,0.2707c0.448,0.0584 1.481,0.1181 1.635,0.6678c0.252,0.9014 -1.716,0.3019 -2.535,1.333c-0.819,1.0312 -3.02,4.5752 -5.934,3.4424c-0.756,-0.2936 -1.05,-1.2829 -1.227,-1.9798c-0.575,-2.2735 -0.478,-4.7504 -0.333,-7.0692c0.054,-0.8752 0.178,-1.744 0.27,-2.6156c0.096,-0.8945 0.159,-1.7972 0.386,-2.6716c0.164,-0.6338 0.425,-1.2536 0.813,-1.7866c0.398,-0.5445 0.959,-0.8314 1.428,-1.2925c0.28,-0.2757 0.681,-0.6106 0.835,-0.9803c0.168,-0.4029 -1.248,-6.162 6.847,-4.1076c0,0 0.674,-0.5108 0.237,-0.7973zm1.036,27.2748c0.006,0.2002 -5.641,3.6582 -6.731,2.9738c-1.099,-0.6902 -2.711,-3.5239 -2.804,-4.8438c0,-0.0086 -0.002,-0.0175 -0.002,-0.0261c0.059,-0.0164 3.504,0.1886 4.508,-0.0104c0.897,0.1161 1.388,0.7592 2.243,1.2963c0.773,0.4854 2.764,-0.1144 2.786,0.6102zm-5.019,-33.0207c-1.423,1.4404 -4.669,3.4986 -7.68,10.3679c-3.021,6.8946 -2.461,11.7298 -1.876,14.0396c-1.794,-2.8014 -3.729,-10.1418 0.208,-17.1105c2.994,-5.3018 7.332,-6.8254 9.348,-7.297zm-17.493,10.3916c0.949,-7.3771 5.175,-11.0624 7.25,-12.5064c-0.951,2.2788 -3.728,5.7752 -3.968,14.9419c-0.241,9.2004 2.677,14.7523 4.413,17.1153c-3.34,-2.3779 -8.941,-9.8539 -7.695,-19.5508zm-3.564,-6.3714c-0.383,2.8406 -1.605,7.1164 1.456,15.3128c3.377,9.0434 8.573,13.0966 11.249,15.3212c-4.436,-1.341 -11.714,-5.4564 -14.779,-14.7378c-2.611,-7.9087 0.555,-13.3565 2.074,-15.8962zm-7.389,9.2409c0.711,2.868 1.558,9.4437 7.955,16.501c7.058,7.7866 15.96,7.2273 15.736,7.9033c-0.256,0.7672 -12.517,0.5772 -19.356,-7.572c-5.828,-6.944 -4.765,-15.5668 -4.335,-16.8323zm50.857,27.5264c-0.614,2.7738 -2.598,5.0546 -4.751,6.9394c-4.596,4.0247 -10.299,6.8155 -16.332,7.9934c3.426,-2.3924 6.082,-5.8317 7.514,-9.7228c-1.902,4.593 -6.087,8.2023 -10.956,9.4556c-4.87,1.2534 -10.309,0.1191 -14.247,-2.9681c7.933,1.659 16.701,-1.5594 21.6,-7.9254c-5.101,4.3573 -11.792,6.8689 -18.541,6.9587c-2.009,0.0267 -4.054,-0.1627 -5.915,-0.9083c-3.667,-1.4743 -6.104,-4.8651 -8.339,-8.0881c7.166,3.9006 16.038,4.5249 23.749,1.8677c0.032,-0.0097 0.066,-0.0218 0.101,-0.0339c3.282,-1.0834 6.471,-2.8322 10.113,-5.1907c2.489,-1.6103 4.522,-3.2936 7.886,-3.6432c1.916,-0.1983 3.521,0.0108 4.868,0.4761c-1.891,-1.5063 -3.891,-1.6526 -6.593,-1.4478c-5.428,0.4116 -10.104,9.7155 -27.6,9.7155c-6.199,0 -18.976,-4.6147 -16.825,-19.3484c1.694,2.8272 3.263,5.4625 5.701,7.7676c2.358,2.2274 5.133,4.0344 8.164,5.2367c0.517,0.2063 1.04,0.3935 1.567,0.561c6.77,2.1546 14.55,1.2024 20.412,-2.7689c2.553,-1.7294 4.833,-4.0319 7.82,-4.8384c2.819,-0.7626 6.015,0.0268 8.137,2.0087c1.449,1.3554 2.481,3.3666 2.592,5.1857c0.04,0.3085 0.06,0.6194 0.062,0.9303c0.005,0.6 -0.057,1.1999 -0.187,1.7876z"/>
  <path id="svg_5" fill="#FEFEFE" d="m73.6,18.4959c-6.737,-11.0802 -19.04,-18.4959 -33.1,-18.4959c-21.3,0 -38.567,17.0189 -38.567,38.012c0,13.0586 6.682,24.5803 16.859,31.4226c6.184,4.1582 13.657,6.5895 21.708,6.5895c21.299,0 38.566,-17.019 38.566,-38.0121c0,-7.1345 -1.994,-13.8112 -5.466,-19.5161zm-33.043,54.892c-19.792,0 -35.837,-15.8138 -35.837,-35.3209c0,-19.5072 16.045,-35.3208 35.837,-35.3208c19.791,0 35.836,15.8136 35.836,35.3208c0,19.5071 -16.045,35.3209 -35.836,35.3209z"/>
 </g>
</svg>